PathFileType	4	(X/Y/Z)	T00_Trial_0-100.trc
DataRate	CameraRate	NumFrames	NumMarkers	Units	OrigDataRate	OrigDataStartFrame	OrigNumFrames
60	60	6	22	m	60	0	100
Frame#	Time	Hip			RHip			RKnee			RAnkle			RBigToe			RSmallToe			RHeel			LHip			LKnee			LAnkle			LBigToe			LSmallToe			LHeel			Neck			Head			Nose			RShoulder			RElbow			RWrist			LShoulder			LElbow			LWrist		
		X1	Y1	Z1	X2	Y2	Z2	X3	Y3	Z3	X4	Y4	Z4	X5	Y5	Z5	X6	Y6	Z6	X7	Y7	Z7	X8	Y8	Z8	X9	Y9	Z9	X10	Y10	Z10	X11	Y11	Z11	X12	Y12	Z12	X13	Y13	Z13	X14	Y14	Z14	X15	Y15	Z15	X16	Y16	Z16	X17	Y17	Z17	X18	Y18	Z18	X19	Y19	Z19	X20	Y20	Z20	X21	Y21	Z21	X22	Y22	Z22
0	0.0	0.023926924926813916	0.9153040455674567	-1.4080687016806521	-0.07291587671421575	0.8989963916189395	-1.4166173393680799	-0.032768713053543445	0.5016372763556289	-1.417524708414227	0.02782363615726615	0.16130070242183464	-1.578998594419409	-0.029819018693806976	0.08400079205616949	-1.3544987621552966	-0.024302468132408023	0.08425998128537836	-1.4541878646569775	0.05317169941414924	0.10475283071292123	-1.6160807970672126	0.15429817335031007	0.8884109130945538	-1.3845776528586355	0.05975404899742787	0.6301928802422997	-0.9853339924623484	0.004327634151963343	0.1623371830190499	-1.1664156458771004	-0.03685404607806391	0.12682024185407098	-0.9652629119326803	0.014271929514648037	0.11727392252221118	-0.9848906373808655	0.0031352682824886385	0.10486521222412583	-1.1921660661005282	-0.035227003200700255	1.4820502976999876	-1.3704734201944304	-0.07322071872069155	1.7038125265612483	-1.269197352197703	-0.06095731420757125	1.5586597296035316	-1.2085376316716718	-0.19899159484971846	1.3788831003733197	-1.4148950821730406	-0.29000161170016797	1.124348626330521	-1.484667576398854	-0.373051184731587	0.9196264170887839	-1.3646440346032807	0.14638321223784453	1.4055436784610547	-1.4147618436837368	0.2688685730038764	1.1757230204954852	-1.472282072794235	0.34958986638758227	0.9504540336740517	-1.449245186780953
1	0.0166666666666666	0.015667726366100247	0.9100461093217214	-1.4179358888721643	-0.07681487936543425	0.8948793591318194	-1.4189773072026928	-0.036741608859189596	0.49554130531479196	-1.422344050625289	0.026925491473965536	0.15959080674357703	-1.581035798595515	-0.013773525375646464	0.07667708246706934	-1.3810163863247475	-0.022941386118736792	0.07358642971406422	-1.4792073754939161	0.049921682070956104	0.10778620907466795	-1.6193172438254657	0.14662123321916243	0.8826079823144362	-1.394181524803164	0.036348693777886396	0.5963904203445787	-1.09279722566078	0.002772444618458384	0.16073982476070237	-1.1606651212838301	-0.04089708307783799	0.11878056856212699	-0.9709014648423481	0.012588567526555773	0.11304608873088928	-0.9882105897008072	0.0012506097404357003	0.10231107287629754	-1.1876215300570163	-0.02953823962756343	1.4799516152000458	-1.3603440782175034	-0.06235656631616393	1.7020670623868241	-1.25774676225333	-0.05404971653092393	1.5567741485723174	-1.2058996109513112	-0.19235379116075008	1.3817402578141493	-1.4068289752800862	-0.29009720147538354	1.1279521933509293	-1.483339215947371	-0.376579088310459	0.9279484629990123	-1.3564801996881484	0.15005285278701858	1.405519191773258	-1.4184224319424121	0.2726420586765954	1.1660843705817383	-1.4607681101903023	0.35186229835609945	0.9383431004473136	-1.4351366733807376
2	0.0333333333333333	0.007580269440151487	0.9054151125062385	-1.426181184311948	-0.08062414910760757	0.8917874340836911	-1.4192651382233645	-0.040400787621390405	0.49007726615420594	-1.42709697558076	0.02611240567007332	0.15801936088867408	-1.5836711296576145	-0.0021792726959434317	0.07050715976426701	-1.4019749368446992	-0.022751550649886123	0.06492398236982633	-1.5007836212431531	0.04700678572622282	0.11037719507752419	-1.6229357100996444	0.13909840621025257	0.8777607690830334	-1.4021766390796728	0.016251680776559523	0.5682720492008969	-1.1804514980413032	0.0012526793888503922	0.15848065661017977	-1.1567754845005007	-0.04411468754201849	0.11144207847562981	-0.9761224342142751	0.011328246014211148	0.10858540619108513	-0.9924540791952081	-0.0005313681483618639	0.0994828375588291	-1.185092418247977	-0.023914274488766714	1.4783941270822094	-1.3520425742612303	-0.05128772139552744	1.7009683150252177	-1.246334472698008	-0.04629299924861879	1.555054319947106	-1.2044318575090909	-0.18613609375431772	1.3848470368352495	-1.398769112198609	-0.2902832371654054	1.1323476797115248	-1.4808127317253417	-0.3800240812784599	0.9368640631030879	-1.3473509912079304	0.15260901810358568	1.4053810759674248	-1.4238868926290018	0.2758226296929492	1.157335532799712	-1.4508088595947777	0.35366542563164416	0.9274446060419739	-1.4228641066923566
3	0.05	0.00042642745080475605	0.9019496355603147	-1.4299898829284121	-0.08432549688516196	0.8904042769283668	-1.416014169072091	-0.04362133811284083	0.4858017079511137	-1.431260064423373	0.02531049030412237	0.15699739005290075	-1.5868496354416066	0.0033225607162978375	0.06622504388237072	-1.4151419075295373	-0.024582679328385506	0.059673227191319345	-1.515805698783674	0.04460093244725174	0.1126319450678234	-1.6268765861431773	0.1324760305248641	0.8742359662232347	-1.4065576767809618	0.0011429870761130668	0.5492907140969607	-1.2370071680015038	-0.00023544277547700597	0.15554316568323898	-1.1553005534075746	-0.04607490968913816	0.1054790972939139	-0.9804227011434229	0.010651185541697875	0.10405215147382349	-0.997592468914269	-0.002147747194737101	0.0964760756328131	-1.1851371815502427	-0.018226128631181837	1.4776459840715293	-1.346485423930585	-0.03954557528449468	1.7009584494009182	-1.2342204482131665	-0.037073558549563596	1.5537005034600944	-1.2040587208514577	-0.18042501720383716	1.3883829635171565	-1.3906315618111462	-0.29071841044611824	1.1381495277913383	-1.4763419475257484	-0.3835911881971087	0.9470511471856875	-1.3366926275921556	0.1541547182223175	1.4048757377020995	-1.4305187402088777	0.2783130804987934	1.1499384505238188	-1.442612727329328	0.3547543338514537	0.9184805059040279	-1.4128138889480422
4	0.0666666666666666	-0.0047636506387618805	0.8999974112845586	-1.4263792296393225	-0.08792305019713254	0.890849149192836	-1.4088955059578325	-0.04654952840992507	0.4830443377578861	-1.434116284135163	0.02438742117761367	0.15706623049065951	-1.5899313834176065	0.004344798846533122	0.06390235391659231	-1.4222102531892997	-0.028253117347264507	0.05801004113739983	-1.5230737782027353	0.04272649584924814	0.11516528616899652	-1.630617171494188	0.1269562350309301	0.8721225172115026	-1.4061517409748205	-0.008735565953549171	0.5393124178248779	-1.262186035001655	-0.0017139532525235867	0.1525976043276717	-1.155445576389255	-0.04685809676788066	0.10130145723955046	-0.9834769196160785	0.0104209458341015	0.10000148331453482	-1.0027240630617882	-0.0036036262726468087	0.0937854511082989	-1.18678574391306	-0.012010076078564866	1.4775793544064981	-1.3427688141856542	-0.02670291983175397	1.7020710403180535	-1.220724398231245	-0.026341953120063013	1.5529312406762703	-1.203305788236888	-0.17494569399435145	1.3923625187111466	-1.3822417591477785	-0.29155681380563575	1.14562003708432	-1.4699019205274357	-0.3876495704322916	0.9590749120040128	-1.3245330287389503	0.15587246565974244	1.4037338518709617	-1.4356460247400014	0.2804866589579146	1.1438770355586236	-1.4352108476554526	0.3551550762318339	0.9114960688864012	-1.403968636501064
5	0.0833333333333333	-0.007721021728279141	0.8996464223268722	-1.4146019615975562	-0.09140415049450698	0.8927700090491332	-1.3985264641972754	-0.04961955879539583	0.4818075091809074	-1.4351987039041876	0.023366989226848777	0.1584952893581962	-1.5923638954806074	0.003775452446777627	0.06303302253878901	-1.4268129082966972	-0.032467970941714455	0.05897988329958567	-1.5242907147498646	0.04142346774533173	0.11851055015113823	-1.6335646477872803	0.12093466048536523	0.8717998732602211	-1.4017858428412853	-0.013449318506701792	0.5353342626322275	-1.2624927987447132	-0.0031457719218869204	0.15041766157551145	-1.1561582559494914	-0.04685722689386087	0.09884247293603118	-0.9853591557762661	0.0103807106311495	0.0969501799002228	-1.0069204423990104	-0.0049105393300213195	0.09195556419238379	-1.1887340626380463	-0.004546213527169253	1.4777546407513804	-1.3383151822344315	-0.01270544008543524	1.7038919377744361	-1.2062997325201494	-0.014279811238963231	1.552720298176122	-1.2009541955072245	-0.16924396115044205	1.3966385009394178	-1.373343613207442	-0.292808840319722	1.1547845117253503	-1.46188144776354	-0.39261187036260675	0.9733992095037254	-1.3118912155800577	0.15881759624742936	1.4018399740083953	-1.4371047950451816	0.28275677730000265	1.1388907908908337	-1.4276180358344048	0.3550396303028562	0.9059746335398112	-1.3950279236550844
